#!OML:ASF E:\acrobat2\Project_11_07_03\Capture day 1\Session 1\Acrobat.ASF
:FULLY-SPECIFIED
:DEGREES
177
root 8.56702 19.5142 -12.5697 11.7943 -10.1007 1.93052
lowerback 5.14118 8.61322 9.51792
upperback 1.31471 11.9429 -3.50437
thorax 1.22998 6.14365 -9.13927
lowerneck -7.62404 -7.94501 0.86032
upperneck 0.193299 -10.7964 4.97609
head 1.5848 -5.2775 1.00602
rclavicle -6.16232e-015 1.11319e-014
rhumerus 66.4387 6.91127 5.17239
rradius 87.6191
rwrist 8.82695
rhand -24.4634 -25.7222
rfingers 7.12502
rthumb 2.02978 -55.6923
lclavicle -6.16232e-015 1.11319e-014
lhumerus -74.7982 -28.2688 63.7676
lradius 12.1228
lwrist 8.30498
lhand -4.45227 2.86749
lfingers 7.12502
lthumb 21.3196 31.7148
rfemur -9.25778 -6.89361 17.6955
rtibia 35.5579
rfoot 1.65546 -12.55
rtoes 5.34336
lfemur -49.0585 -10.5314 -5.12383
ltibia 89.5024
lfoot 6.40803 2.81337
ltoes 42.8722
178
root 8.65225 19.5939 -12.3364 11.5722 -13.2744 2.14978
lowerback 5.55276 8.98207 9.4748
upperback 1.52364 12.4628 -3.71566
thorax 1.3846 6.42894 -9.36056
lowerneck -8.12103 -7.51792 0.453134
upperneck 0.612925 -10.2257 5.07557
head 1.82866 -4.97417 1.09778
rclavicle -6.10269e-014 1.27222e-014
rhumerus 68.9344 6.32516 4.72849
rradius 86.9308
rwrist 9.08114
rhand -24.4514 -25.4124
rfingers 7.12502
rthumb 2.04139 -55.3824
lclavicle -6.10269e-014 1.27222e-014
lhumerus -75.0506 -27.1651 62.175
lradius 12.2028
lwrist 8.86687
lhand -4.7499 2.70221
lfingers 7.12502
lthumb 21.0337 31.5815
rfemur -9.73641 -7.77926 16.8174
rtibia 36.5918
rfoot -0.6868 -14.5956
rtoes 7.8879
lfemur -49.5128 -10.9696 -5.0961
ltibia 88.595
lfoot 6.16856 2.37109
ltoes 40.0455
179
root 8.73234 19.6654 -12.1035 11.3874 -16.5482 2.29551
lowerback 6.0067 9.38218 9.38386
upperback 1.65315 13.0256 -3.89892
thorax 1.42857 6.72515 -9.54383
lowerneck -7.78787 -7.17788 0.364104
upperneck 0.428908 -9.75045 5.09476
head 1.70506 -4.74731 1.15578
rclavicle -1.64991e-014 -2.38542e-015
rhumerus 71.767 6.05359 3.75654
rradius 86.6665
rwrist 9.49744
rhand -23.5672 -25.6661
rfingers 7.12502
rthumb 2.89536 -55.6262
lclavicle -1.64991e-014 -2.38542e-015
lhumerus -75.0986 -25.9533 59.9823
lradius 12.3297
lwrist 9.31502
lhand -4.57976 2.95146
lfingers 7.12502
lthumb 21.1971 31.8125
rfemur -10.3015 -8.41751 16.1184
rtibia 37.4059
rfoot -2.74039 -16.0661
rtoes 9.99111
lfemur -49.8355 -11.3541 -4.85763
ltibia 87.5592
lfoot 5.83316 2.08065
ltoes 39.1498
180
root 8.81192 19.7267 -11.8709 11.129 -19.5303 2.57556
lowerback 6.5361 9.64965 9.27213
upperback 1.77064 13.4141 -4.11352
thorax 1.38372 6.92938 -9.77938
lowerneck -7.56268 -6.85126 0.529732
upperneck 0.289269 -9.30598 4.66555
head 1.57535 -4.54242 1.02481
rclavicle 4.57205e-015 1.35174e-014
rhumerus 74.3326 5.79322 3.021
rradius 85.1839
rwrist 9.68278
rhand -23.8657 -25.0517
rfingers 7.12502
rthumb 2.60707 -55.0155
lclavicle 4.57205e-015 1.35174e-014
lhumerus -74.9952 -24.7034 57.5609
lradius 12.3825
lwrist 9.74676
lhand -3.91949 3.65158
lfingers 7.12502
lthumb 21.8313 32.4402
rfemur -10.7887 -9.29599 15.3743
rtibia 37.8439
rfoot -4.04888 -17.2381
rtoes 9.78787
lfemur -50.0606 -12.1169 -4.5691
ltibia 86.3363
lfoot 5.57992 1.90083
ltoes 38.5537
181
root 8.8928 19.7763 -11.6331 10.8714 -22.4218 2.99453
lowerback 6.99578 9.876 9.08311
upperback 1.83448 13.7362 -4.3835
thorax 1.30284 7.09656 -10.033
lowerneck -7.87114 -6.47943 0.64972
upperneck 0.657291 -8.82581 4.12744
head 1.70386 -4.30359 0.840537
rclavicle 8.50798e-014 -2.06736e-014
rhumerus 76.8492 5.81214 2.00484
rradius 83.9687
rwrist 9.90256
rhand -24.1224 -24.4271
rfingers 7.12502
rthumb 2.3591 -54.3938
lclavicle 8.50798e-014 -2.06736e-014
lhumerus -75.2344 -23.6849 55.662
lradius 12.4595
lwrist 10.1932
lhand -3.36436 4.28246
lfingers 7.12502
lthumb 22.3642 33.008
rfemur -11.2633 -10.4314 14.5162
rtibia 37.895
rfoot -4.44284 -18.0394
rtoes 7.9304
lfemur -50.333 -12.9365 -4.31944
ltibia 85.1158
lfoot 5.57225 1.73341
ltoes 37.3082
182
root 8.97195 19.818 -11.3917 10.7157 -25.353 3.27632
lowerback 7.3475 10.0912 9.00943
upperback 1.92188 14.0408 -4.64819
thorax 1.33116 7.26403 -10.3188
lowerneck -8.32399 -6.09703 0.907371
upperneck 0.824515 -8.33827 3.61203
head 1.79152 -4.06391 0.640832
rclavicle -8.74653e-015 3.65764e-014
rhumerus 79.441 5.91577 0.650537
rradius 83.0265
rwrist 9.87814
rhand -24.0882 -23.6401
rfingers 7.12502
rthumb 2.39222 -53.6064
lclavicle -8.74653e-015 3.65764e-014
lhumerus -75.6623 -22.7547 54.1096
lradius 12.6391
lwrist 10.9017
lhand -3.38503 4.80703
lfingers 7.12502
lthumb 22.3444 33.5349
rfemur -11.8196 -11.5693 13.8758
rtibia 37.832
rfoot -4.89292 -18.344
rtoes 6.16167
lfemur -50.731 -13.4112 -3.88551
ltibia 84.0364
lfoot 5.53583 1.57503
ltoes 35.9339
